<?xml version="1.0" standalone="no"?>
<!DOCTYPE svg PUBLIC "-//W3C//DTD SVG 20010904//EN"
 "http://www.w3.org/TR/2001/REC-SVG-20010904/DTD/svg10.dtd">
<svg version="1.0" xmlns="http://www.w3.org/2000/svg"
 width="100.000000pt" height="100.000000pt" viewBox="0 0 100.000000 100.000000"
 preserveAspectRatio="xMidYMid meet">
<metadata>
Created by potrace 1.11, written by Peter Selinger 2001-2013
</metadata>
<g transform="translate(0.000000,100.000000) scale(0.100000,-0.100000)"
fill="#000000" stroke="none">
<path d="M513 787 c-23 -29 -47 -66 -53 -82 l-11 -28 -34 36 c-43 46 -111 91
-124 83 -5 -4 -10 -14 -10 -24 0 -9 -1 -49 -1 -89 l-1 -71 -36 10 c-53 15
-153 17 -153 4 1 -19 36 -89 64 -125 l26 -34 -54 -22 c-78 -32 -120 -64 -105
-81 18 -22 130 -74 161 -74 15 0 46 13 68 29 22 16 61 34 87 41 l48 12 -50 17
c-28 10 -66 28 -85 40 l-35 22 70 -4 c39 -3 81 -8 95 -12 l25 -8 -21 24 c-32
37 -61 82 -69 108 l-7 24 33 -23 c19 -12 50 -40 69 -61 l35 -38 -3 80 c-2 45
1 86 6 91 12 12 45 -89 46 -138 1 -19 2 -34 2 -34 1 0 12 19 24 41 25 50 69
109 80 109 11 0 -13 -98 -33 -137 l-17 -33 32 18 c18 10 63 29 100 42 64 22
68 26 88 73 12 28 24 72 27 99 l5 49 -28 -7 c-16 -4 -57 -19 -91 -34 l-62 -28
-6 41 c-6 37 -49 148 -57 147 -2 -1 -22 -25 -45 -53z"/>
<path d="M478 401 c-47 -16 -63 -31 -33 -31 22 0 107 -44 127 -66 15 -17 34
-19 212 -18 108 0 198 3 201 6 8 7 -122 74 -192 100 -76 27 -246 32 -315 9z"/>
</g>
</svg>
